<svg width="605" height="508" viewBox="0 0 605 508" fill="none" xmlns="http://www.w3.org/2000/svg">
<g clip-path="url(#clip0_195_4)">
<path d="M453 429H53L69.8574 370H415L498.621 79H553L453 429Z" fill="url(#paint0_linear_195_4)"/>
<path d="M505 508H105L121.857 449H467L550.621 158H605L505 508Z" fill="url(#paint1_linear_195_4)"/>
<path d="M100 0H500L400 348H0L100 0Z" fill="url(#paint2_linear_195_4)"/>
<path d="M135.952 95H396.201L386.581 128.5H126.316L135.952 95Z" fill="white"/>
<path d="M116.251 157.5H376.5L366.88 191H106.615L116.251 157.5Z" fill="white"/>
<path d="M97.6357 220H357.885L348.265 253.5H88L97.6357 220Z" fill="white"/>
</g>
<defs>
<linearGradient id="paint0_linear_195_4" x1="303" y1="79" x2="303" y2="429" gradientUnits="userSpaceOnUse">
<stop stop-color="#3366FF"/>
<stop offset="1" stop-color="#76C0F9"/>
</linearGradient>
<linearGradient id="paint1_linear_195_4" x1="355" y1="158" x2="355" y2="508" gradientUnits="userSpaceOnUse">
<stop stop-color="#3366FF"/>
<stop offset="1" stop-color="#76C0F9"/>
</linearGradient>
<linearGradient id="paint2_linear_195_4" x1="250" y1="0" x2="250" y2="348" gradientUnits="userSpaceOnUse">
<stop stop-color="#3366FF"/>
<stop offset="1" stop-color="#76C0F9"/>
</linearGradient>
<clipPath id="clip0_195_4">
<rect width="605" height="508" fill="white"/>
</clipPath>
</defs>
</svg>
