<svg width="1407" height="508" viewBox="0 0 1407 508" fill="none" xmlns="http://www.w3.org/2000/svg">
<g clip-path="url(#clip0_195_35)">
<path d="M595.5 384H1232.5L1246.14 343.5L1387.5 426.5L1199.5 512.5L1213 459.5H576.5L595.5 384Z" fill="url(#paint0_linear_195_35)"/>
<path d="M453 429H53L69.8574 370H415L498.621 79H553L453 429Z" fill="url(#paint1_linear_195_35)"/>
<path d="M505 508H105L121.857 449H467L550.621 158H605L505 508Z" fill="url(#paint2_linear_195_35)"/>
<path d="M100 0H500L400 348H0L100 0Z" fill="url(#paint3_linear_195_35)"/>
<path d="M135.952 95H396.201L386.581 128.5H126.316L135.952 95Z" fill="white"/>
<path d="M116.251 157.5H376.5L366.88 191H106.615L116.251 157.5Z" fill="white"/>
<path d="M97.6357 220H357.885L348.265 253.5H88L97.6357 220Z" fill="white"/>
<path d="M1145.84 208.75C1143.84 219.917 1139.51 230.083 1132.84 239.25C1126.17 248.25 1117.26 255.417 1106.09 260.75C1095.09 266.083 1082.42 268.75 1068.09 268.75H1045L1035 313.5H966.839L1011.84 148H1089.34C1108.17 148 1122.51 152.25 1132.34 160.75C1142.17 169.25 1147.09 180.917 1147.09 195.75C1147.09 199.417 1146.67 203.75 1145.84 208.75ZM1069.59 225C1080.92 225 1087.59 219.583 1089.59 208.75C1089.92 206.75 1090.09 205.333 1090.09 204.5C1090.09 196.5 1085.17 192.5 1075.34 192.5H1061L1053.84 225H1069.59Z" fill="white"/>
<path d="M1233.69 148L1188.69 313.5H1133.19L1178.19 148H1233.69Z" fill="white"/>
<path d="M1328.51 148C1344.84 148 1358.84 151 1370.51 157C1382.18 162.833 1391.09 171.083 1397.26 181.75C1403.43 192.25 1406.51 204.417 1406.51 218.25C1406.51 223.75 1406.01 229.667 1405.01 236C1402.01 252.833 1395.51 268 1385.51 281.5C1375.68 295 1364.84 300.667 1349.51 308.5C1334.34 316.167 1302.01 313.5 1283.51 313.5H1209.76L1254.76 148H1328.51ZM1305 269C1317.5 269 1325 269.333 1333.5 262.5C1342.17 255.667 1346.59 248.667 1348.76 236C1349.26 232.667 1349.51 229.583 1349.51 226.75C1349.51 216.917 1347.17 210.667 1341 205.5C1335 200.333 1325.83 200 1315 200H1298.99L1281.5 269H1305Z" fill="white"/>
<path d="M716.949 342L703.949 386H641.949L634.949 410.5H695.449L683.449 452.25H621.949L605.949 507.5H553L598 342H716.949Z" fill="white"/>
<path d="M793.449 342L748.449 507.5H692.949L737.949 342H793.449Z" fill="white"/>
<path d="M1039.45 386L1033.85 408H1081.95L1070.95 449.75H1026.35L1018.45 474.75H1081.95L1070.95 507.5H944.846L989.846 342H1114.95L1101.95 386H1039.45Z" fill="white"/>
<path fill-rule="evenodd" clip-rule="evenodd" d="M733.499 148C752.499 148 766.916 152.25 776.749 160.75C786.583 169.25 791.499 180.583 791.499 194.75C791.499 198.917 791.166 202.667 790.499 206C788.333 218 783.166 228.583 774.999 237.75C766.833 246.75 759.499 252.5 746.499 256.5L760.98 313.5H702.499L692.999 268.5H678.999L666.999 313.5H605.999L650.999 148H733.499ZM714.999 224.5H690.999L698.249 194.5H720.249C724.749 194.5 728.166 195.583 730.499 197.75C732.833 199.75 733.999 202.583 733.999 206.25C733.999 207.583 733.916 208.667 733.749 209.5C732.749 214.667 730.666 218.5 727.499 221C724.499 223.333 720.333 224.5 714.999 224.5Z" fill="white"/>
<path fill-rule="evenodd" clip-rule="evenodd" d="M893.999 292H850.999L839.499 313.5H770.499L862.999 148H946.999L954.23 313.5H893.999V292ZM895.73 208.75V250.5H873.499L895.73 208.75Z" fill="white"/>
<path fill-rule="evenodd" clip-rule="evenodd" d="M901.449 342C920.449 342 934.866 346.25 944.699 354.75C954.532 363.25 959.449 374.583 959.449 388.75C959.449 392.917 959.116 396.667 958.449 400C956.282 412 951.116 422.583 942.949 431.75C934.782 440.75 927.449 446.5 914.449 450.5L928.929 507.5H870.449L860.949 462.5H846.949L834.949 507.5H773.949L818.949 342H901.449ZM882.949 418.5H858.949L866.199 388.5H888.199C892.699 388.5 896.116 389.583 898.449 391.75C900.782 393.75 901.949 396.583 901.949 400.25C901.949 401.583 901.866 402.667 901.699 403.5C900.699 408.667 898.616 412.5 895.449 415C892.449 417.333 888.282 418.5 882.949 418.5Z" fill="white"/>
</g>
<defs>
<linearGradient id="paint0_linear_195_35" x1="570.864" y1="427" x2="1385" y2="427" gradientUnits="userSpaceOnUse">
<stop stop-color="#3366FF"/>
<stop offset="1" stop-color="#76C0F9"/>
</linearGradient>
<linearGradient id="paint1_linear_195_35" x1="303" y1="79" x2="303" y2="429" gradientUnits="userSpaceOnUse">
<stop stop-color="#3366FF"/>
<stop offset="1" stop-color="#76C0F9"/>
</linearGradient>
<linearGradient id="paint2_linear_195_35" x1="355" y1="158" x2="355" y2="508" gradientUnits="userSpaceOnUse">
<stop stop-color="#3366FF"/>
<stop offset="1" stop-color="#76C0F9"/>
</linearGradient>
<linearGradient id="paint3_linear_195_35" x1="250" y1="0" x2="250" y2="348" gradientUnits="userSpaceOnUse">
<stop stop-color="#3366FF"/>
<stop offset="1" stop-color="#76C0F9"/>
</linearGradient>
<clipPath id="clip0_195_35">
<rect width="1407" height="508" fill="white"/>
</clipPath>
</defs>
</svg>
